PathFileType	4	(X/Y/Z)	/Users/niels/Desktop/University/Third Semester/Perception and Action/Exam/Gymnastics Motion Tracking/Code for Gym Tracking/Analyzed Data/Webcam_Backflip/id8_1_pure_Sports2D/id8_1_pure_Sports2D_px_person00.trc
DataRate	CameraRate	NumFrames	NumMarkers	Units	OrigDataRate	OrigDataStartFrame	OrigNumFrames
29.8125	29.8125	8	22	m	29.8125	120	160
Frame#	Time	Hip			RHip			RKnee			RAnkle			RBigToe			RSmallToe			RHeel			LHip			LKnee			LAnkle			LBigToe			LSmallToe			LHeel			Neck			Head			Nose			RShoulder			RElbow			RWrist			LShoulder			LElbow			LWrist		
		X1	Y1	Z1	X2	Y2	Z2	X3	Y3	Z3	X4	Y4	Z4	X5	Y5	Z5	X6	Y6	Z6	X7	Y7	Z7	X8	Y8	Z8	X9	Y9	Z9	X10	Y10	Z10	X11	Y11	Z11	X12	Y12	Z12	X13	Y13	Z13	X14	Y14	Z14	X15	Y15	Z15	X16	Y16	Z16	X17	Y17	Z17	X18	Y18	Z18	X19	Y19	Z19	X20	Y20	Z20	X21	Y21	Z21	X22	Y22	Z22
120	4.025157232704402	0.9659689052105895	-0.5705471150919694	0.0	0.9454853684324307	-0.5746778576512975	0.0	0.9462372711621985	-0.6698590275631046	0.0	0.9435862177360035	-0.7599876867781518	0.0	0.9641742255235172	-0.7786179353415039	0.0	0.95018590205424	-0.7786125824377533	0.0	0.9395597478208225	-0.7712695960045161	0.0	0.9856989671982003	-0.5711606540748028	0.0	0.98856849163715	-0.6679128964365352	0.0	0.986632088884281	-0.7671473028683963	0.0	1.0039588363351843	-0.7887862267430215	0.0	1.0114526537301607	-0.7857557537588519	0.0	0.980258225107722	-0.7799246029256196	0.0	0.9542305290371548	-0.43904794058437735	0.0	0.9511901392049502	-0.3775235910108826	0.0	0.9631259213094041	-0.4093951915467128	0.0	0.9194196259284895	-0.462975396327928	0.0	0.9117048753764943	-0.5299781114934592	0.0	0.9120256620836619	-0.5917142038491344	0.0	0.9895953739378527	-0.45462638119638127	0.0	1.0115892492890477	-0.5115882760747189	0.0	1.0407922358944484	-0.5630222353368047	0.0
121	4.058700209643606	0.9650483179275582	-0.5732239212340171	0.0	0.9446510459586791	-0.5775430088439351	0.0	0.9464765602836559	-0.6718910369122878	0.0	0.9445562204267522	-0.7611386839365524	0.0	0.9641588058508823	-0.7806230749232327	0.0	0.9499428865864651	-0.7806151408226066	0.0	0.9407262049485016	-0.7722917983033769	0.0	0.9849944503052397	-0.5738631789420555	0.0	0.9884565659056709	-0.669571717231305	0.0	0.9866668443701505	-0.7691401772992171	0.0	1.0034613942831907	-0.79053070820876	0.0	1.011081997358367	-0.7875027583402255	0.0	0.9807798262760228	-0.7816713021456947	0.0	0.9538798921396843	-0.44125711981723803	0.0	0.9506502495996256	-0.3800350807979275	0.0	0.9620347998356094	-0.41200978948762024	0.0	0.918746415880775	-0.4653203264965202	0.0	0.9110014997008313	-0.5321878422936049	0.0	0.9110776968314289	-0.5936283981690796	0.0	0.9894261619641392	-0.4574254672742369	0.0	1.014076666509764	-0.5134501965859957	0.0	1.0472650536160788	-0.5632317144370871	0.0
122	4.092243186582809	0.9643002218538058	-0.5769711897359506	0.0	0.9440984840068233	-0.581447453896025	0.0	0.9465599491293921	-0.6749910419830155	0.0	0.9450288772561379	-0.7635644049881427	0.0	0.9640373882652863	-0.7838498412242827	0.0	0.949561315293721	-0.7838314618398532	0.0	0.9414086256468183	-0.7746000215477123	0.0	0.9843074896531965	-0.5777607315745332	0.0	0.9877327793391177	-0.6724903624149267	0.0	0.9862563382926185	-0.7722496184402058	0.0	1.0032311887092051	-0.7932068627310233	0.0	1.0107021905520253	-0.7901652379243531	0.0	0.9809625886623373	-0.7846324987752419	0.0	0.9535660858070265	-0.4447181651745748	0.0	0.9502630734174459	-0.3839494548378865	0.0	0.9611187859388803	-0.41598234556849595	0.0	0.9181223918557774	-0.46887475255555944	0.0	0.9109117852352676	-0.5356613032315105	0.0	0.9111612466129693	-0.5966938754533738	0.0	0.9890661826602656	-0.46157757876471517	0.0	1.0158566908555278	-0.5172512510255262	0.0	1.0524866407525217	-0.5653020163305855	0.0
123	4.125786163522012	0.963681669826794	-0.5813358335182821	0.0	0.9437948834891815	-0.5859431806155836	0.0	0.9465569715692963	-0.6787543773968636	0.0	0.9451532116636178	-0.7670020826541857	0.0	0.9639578023336414	-0.7878881658695265	0.0	0.9492331219664516	-0.7878554217785121	0.0	0.9417239294269523	-0.7779292125566625	0.0	0.9836144043176642	-0.5823721610137852	0.0	0.9865542854176614	-0.6762117906955568	0.0	0.985572986274198	-0.7760916240177099	0.0	1.0033019153664071	-0.796496422874534	0.0	1.0103806879110186	-0.7934836198087177	0.0	0.9808505116895063	-0.7884283990709601	0.0	0.9532663662208122	-0.44897921191776324	0.0	0.9500152727985782	-0.38875047305887706	0.0	0.9604153975278165	-0.420736035034497	0.0	0.9175683861968957	-0.47319883356149034	0.0	0.9113087279664472	-0.5398925337623799	0.0	0.9123101713243436	-0.6004477236599517	0.0	0.9885703529740288	-0.4665490151292578	0.0	1.0167479672841258	-0.522426295408749	0.0	1.0560558105592543	-0.568890708732993	0.0
124	4.159329140461216	0.9631246854276014	-0.5858620419864841	0.0	0.9436241416081766	-0.5905611836251851	0.0	0.9464629898755615	-0.6827824073662113	0.0	0.9451203556809885	-0.7710535746326388	0.0	0.9639185979946119	-0.7921520109657495	0.0	0.9490378438794075	-0.7921085144978788	0.0	0.9418336341145596	-0.7818412395618237	0.0	0.982902038421648	-0.5871386170754305	0.0	0.9852224012100915	-0.6801652428272734	0.0	0.9848511766462303	-0.7801917877061001	0.0	1.0035189219698493	-0.8000213032571708	0.0	1.0101069066687454	-0.7970940587046725	0.0	0.9805358343975925	-0.7925415256492249	0.0	0.952956690852084	-0.45354182677849336	0.0	0.9499008852901559	-0.39384096573718647	0.0	0.9598994374940579	-0.42566923950961066	0.0	0.9170909012943764	-0.47782539681094166	0.0	0.91199577084114	-0.5443341363589466	0.0	0.9144521798187527	-0.6044026376099004	0.0	0.9879893142229706	-0.4717875372451799	0.0	1.016564550805722	-0.5282587737654306	0.0	1.0575476553464205	-0.5735738039358874	0.0
125	4.192872117400419	0.9625931028055458	-0.5900515730001552	0.0	0.9434350871259445	-0.5947858589688427	0.0	0.9462065915088249	-0.6866539893547428	0.0	0.9450671985978987	-0.7751563324604761	0.0	0.9638210168591003	-0.7959390110890285	0.0	0.94895792058533	-0.7959013626691347	0.0	0.941893606572232	-0.7857061280526815	0.0	0.9821845627275048	-0.5914569812982224	0.0	0.9840290441453681	-0.6837559431482922	0.0	0.9842713651890148	-0.7839714282862172	0.0	1.003608403894479	-0.8032807349803748	0.0	1.0098178447202177	-0.8004571332620151	0.0	0.9801093047482213	-0.7963429014640137	0.0	0.9526135497533244	-0.45787914452578465	0.0	0.9499297214071378	-0.39856217184519244	0.0	0.9595082448045087	-0.43021401066355025	0.0	0.916689451575443	-0.482242100105522	0.0	0.9127948216892172	-0.5484700889033722	0.0	0.9174189334051288	-0.6080755175394814	0.0	0.9873704225004166	-0.47671229989898056	0.0	1.0151835005690082	-0.5340208698934853	0.0	1.056527286617972	-0.5789242709190716	0.0
126	4.226415094339622	0.9621160167315842	-0.5933635599216204	0.0	0.9431676408570946	-0.5980646150276139	0.0	0.9457282238006793	-0.6898730225111757	0.0	0.9450277113776303	-0.7786809177345514	0.0	0.9636105850856409	-0.7986023305795854	0.0	0.9489409570908011	-0.7986063260870426	0.0	0.9419740096129925	-0.788887924313005	0.0	0.9815091488671844	-0.5947663994544921	0.0	0.9831150771707116	-0.6864706384144645	0.0	0.9838966621984544	-0.7868094457466706	0.0	1.003418944320668	-0.805683058695279	0.0	1.0095024866635045	-0.8029148027100822	0.0	0.9796034445881452	-0.7991967040379581	0.0	0.9522070225338286	-0.46145920735333296	0.0	0.9500778241739508	-0.40228839797479604	0.0	0.9591713457149825	-0.43385540792734656	0.0	0.9163676390442466	-0.4858774271922359	0.0	0.9135855283608858	-0.551823947562803	0.0	0.9208992736606185	-0.6109811684784134	0.0	0.9867111574312998	-0.4807149123520042	0.0	1.0126036970585648	-0.5390439188328762	0.0	1.0526759284677512	-0.5844806183925229	0.0
127	4.259958071278826	0.9617408145461163	-0.5953144915526722	0.0	0.9428813946544088	-0.5999303392830637	0.0	0.9450275869755214	-0.6919380052713457	0.0	0.9449472681537033	-0.7811111139447903	0.0	0.9633760957589185	-0.7997631320544375	0.0	0.9489832886462891	-0.7998672461008023	0.0	0.9420022217978943	-0.7909973156871937	0.0	0.9809176675758796	-0.5966685167283783	0.0	0.9824562667089703	-0.6879766698452022	0.0	0.9836888930640594	-0.7882200214289683	0.0	1.0031280022203508	-0.8067321949109114	0.0	1.009277914727599	-0.8039204100800199	0.0	0.9789942144233789	-0.8006361268713595	0.0	0.9517233056634187	-0.4638101729899765	0.0	0.9502531816818174	-0.40457286005622994	0.0	0.9588234457151859	-0.43617129373442226	0.0	0.9161228433344732	-0.4881861124975517	0.0	0.9142788106488774	-0.5539711749407193	0.0	0.9243829834033014	-0.612663118800484	0.0	0.9859691829337728	-0.4832707403953428	0.0	1.0089954766648759	-0.5427674457300439	0.0	1.04599995322031	-0.5896927005136707	0.0
